{"title":"Vera S02","uid":10489168,"size":2645677398,"categoryP":"video","categoryS":"tv_shows","magnet":"?xt=urn:btih:df93fc8f50176f25317d27d453e387d252ca63c9&amp;dn=Vera+S02&amp;tr=udp%3A%2F%2Ftracker.openbittorrent.com%3A80&amp;tr=udp%3A%2F%2Fopen.demonii.com%3A1337&amp;tr=udp%3A%2F%2Ftracker.coppersurfer.tk%3A6969&amp;tr=udp%3A%2F%2Fexodus.desync.com%3A6969","seeders":25,"leechers":5,"uploader":"RedBaron58","files":4,"time":1404519787,"description":"Vera Season 2 (2012) UK Crime Drama x264 mp4\n &lt;a href=&quot;\nhttp://www.imdb.com/title/tt1693592/&quot; rel=&quot;nofollow&quot; target=&quot;_NEW&quot;&gt;\nhttp://www.imdb.com/title/tt1693592/&lt;/a&gt;\n\n\nThank you for your kind comments and thumbs ups on my other torrents, your feedback is welcome.\n\n\nAbout the Series:\nThe central character is Detective Chief Inspector Vera Stanhope. Who is obsessive about her work \nand driven by her own demons. If she's lonely she doesn't show it and faces the world with caustic wit, \nguile and courage. Her trusted and long suffering colleague is Sergeant Joe Ashworth. \nTogether they approach every new case with unparalleled gusto and professionalism.\n\n\nI hope you enjoy.\n\n\nTechnical: (All episode encoded to same settings)\n\nGeneral\nComplete name                            : G:Vera S02Vera S02E01 The Ghost Position x264 RB58.mp4\nFormat                                   : MPEG-4\nFormat profile                           : Base Media / Version 2\nCodec ID                                 : mp42\nFile size                                : 631 MiB\nDuration                                 : 1h 28mn\nOverall bit rate mode                    : Variable\nOverall bit rate                         : 991 Kbps\nEncoded date                             : UTC 2014-07-03 15:49:58\nTagged date                              : UTC 2014-07-03 16:15:45\nWriting application                      : HandBrake 0.9.8 2012071700\n\nVideo\nID                                       : 1\nFormat                                   : AVC\nFormat/Info                              : Advanced Video Codec\nFormat profile                           : &lt;a class=&quot;__cf_email__&quot; href=&quot;/cdn-cgi/l/email-protection&quot; data-cfemail=&quot;206d41494e606c130e10&quot;&gt;[email&amp;#160;protected]&lt;/a&gt;&lt;script cf-hash='f9e31' type=&quot;text/javascript&quot;&gt;\n/* &lt;![CDATA[ */!function(){try{var t=&quot;currentScript&quot;in document?document.currentScript:function(){for(var t=document.getElementsByTagName(&quot;script&quot;),e=t.length;e--;)if(t[e].getAttribute(&quot;cf-hash&quot;))return t[e]}();if(t&amp;&amp;t.previousSibling){var e,r,n,i,c=t.previousSibling,a=c.getAttribute(&quot;data-cfemail&quot;);if(a){for(e=&quot;&quot;,r=parseInt(a.substr(0,2),16),n=2;a.length-n;n+=2)i=parseInt(a.substr(n,2),16)^r,e+=String.fromCharCode(i);e=document.createTextNode(e),c.parentNode.replaceChild(e,c)}}}catch(u){}}();/* ]]&gt; */&lt;/script&gt;\nFormat settings, CABAC                   : Yes\nFormat settings, ReFrames                : 4 frames\nCodec ID                                 : avc1\nCodec ID/Info                            : Advanced Video Coding\nDuration                                 : 1h 28mn\nBit rate mode                            : Variable\nBit rate                                 : 900 Kbps\nWidth                                    : 720 pixels\nHeight                                   : 568 pixels\nDisplay aspect ratio                     : 16:9\nFrame rate mode                          : Variable\nFrame rate                               : 25.000 fps\nMinimum frame rate                       : 12.500 fps\nMaximum frame rate                       : 31.381 fps\nColor space                              : YUV\nChroma subsampling                       : 4:2:0\nBit depth                                : 8 bits\nScan type                                : Progressive\nBits/(Pixel*Frame)                       : 0.088\nStream size                              : 567 MiB (90%)\nWriting library                          : x264 core 120\nEncoding settings                        : cabac=1 / ref=1 / deblock=1:0:0\nEncoded date                             : UTC 2014-07-03 15:49:58\nTagged date                              : UTC 2014-07-03 16:15:45\nColor primaries                          : BT.601 NTSC\nTransfer characteristics                 : BT.709\nMatrix coefficients                      : BT.601\n\nAudio\nID                                       : 2\nFormat                                   : AAC\nFormat/Info                              : Advanced Audio Codec\nFormat profile                           : LC\nCodec ID                                 : 40\nDuration                                 : 1h 28mn\nBit rate mode                            : Variable\nBit rate                                 : 96.0 Kbps\nMaximum bit rate                         : 152 Kbps\nChannel(s)                               : 2 channels\nChannel positions                        : Front: L R\nSampling rate                            : 48.0 KHz\nCompression mode                         : Lossy\nDelay relative to video                  : 80ms\nStream size                              : 61.1 MiB (10%)\nLanguage                                 : English\nEncoded date                             : UTC 2014-07-03 15:49:58\nTagged date                              : UTC 2014-07-03 16:15:44","torrent":{"xt":"urn:btih:df93fc8f50176f25317d27d453e387d252ca63c9","amp;dn":"Vera+S02","amp;tr":["udp%3A%2F%2Ftracker.openbittorrent.com%3A80","udp%3A%2F%2Fopen.demonii.com%3A1337","udp%3A%2F%2Ftracker.coppersurfer.tk%3A6969","udp%3A%2F%2Fexodus.desync.com%3A6969"],"infoHash":"df93fc8f50176f25317d27d453e387d252ca63c9","infoHashBuffer":{"type":"Buffer","data":[223,147,252,143,80,23,111,37,49,125,39,212,83,227,135,210,82,202,99,201]},"announce":[],"urlList":[]}}